<?xml version="1.0" encoding="utf-8"?>
<!-- Generator: Adobe Illustrator 16.0.3, SVG Export Plug-In . SVG Version: 6.00 Build 0)  -->
<!DOCTYPE svg PUBLIC "-//W3C//DTD SVG 1.1//EN" "http://www.w3.org/Graphics/SVG/1.1/DTD/svg11.dtd">
<svg version="1.1" id="Layer_1" xmlns="http://www.w3.org/2000/svg" xmlns:xlink="http://www.w3.org/1999/xlink" x="0px" y="0px"
	 width="20px" height="20px" viewBox="0 0 20 20" enable-background="new 0 0 20 20" xml:space="preserve">
<g>
	<path fill-rule="evenodd" clip-rule="evenodd" fill="#FE5853" d="M10.004,18.119c0.705-0.013,1.399-0.1,2.078-0.297
		c1.442-0.417,2.665-1.186,3.661-2.31c1.019-1.151,1.65-2.493,1.846-4.011c0.287-2.227-0.277-4.231-1.713-5.972
		c-0.74-0.897-1.649-1.58-2.709-2.059c-0.303-0.137-0.564-0.307-0.648-0.653c-0.075-0.317-0.002-0.602,0.232-0.826
		c0.225-0.217,0.502-0.315,0.811-0.213c0.499,0.167,0.958,0.423,1.4,0.702c1.513,0.953,2.675,2.228,3.464,3.835
		c0.497,1.012,0.802,2.079,0.907,3.203c0.224,2.397-0.357,4.581-1.793,6.513c-1.469,1.976-3.431,3.194-5.857,3.646
		c-0.316,0.06-0.636,0.102-0.953,0.152c-0.243,0-0.487,0-0.729,0C10,19.261,10.002,18.69,10.004,18.119z"/>
	<path fill-rule="evenodd" clip-rule="evenodd" fill="#FE7976" d="M10.004,18.119C10.002,18.69,10,19.261,10,19.831
		c-0.256,0-0.512,0-0.768,0c-0.208-0.087-0.434-0.072-0.651-0.107C6,19.3,3.935,18.035,2.388,15.931
		c-0.899-1.224-1.451-2.597-1.667-4.096c-0.257-1.78-0.041-3.508,0.692-5.155c0.998-2.241,2.635-3.85,4.874-4.847
		c0.444-0.198,0.935-0.017,1.137,0.41c0.2,0.421,0.04,0.911-0.398,1.121c-0.718,0.344-1.407,0.73-2.011,1.255
		C3.613,5.839,2.744,7.364,2.435,9.2c-0.289,1.718-0.008,3.352,0.814,4.879c0.787,1.46,1.938,2.558,3.439,3.28
		C7.737,17.864,8.842,18.114,10.004,18.119z"/>
	<path fill-rule="evenodd" clip-rule="evenodd" fill="#FE5752" d="M10.191,0.169c0.278,0.115,0.52,0.268,0.618,0.577
		c0.024,0.074,0.039,0.147,0.039,0.225C10.85,3.02,10.854,5.07,10.847,7.12c-0.002,0.393-0.262,0.684-0.638,0.787
		c-0.069,0.02-0.137,0.022-0.207,0.015C10,5.337,10,2.753,10,0.169C10.064,0.169,10.127,0.169,10.191,0.169z"/>
	<path fill-rule="evenodd" clip-rule="evenodd" fill="#FE7976" d="M10,0.169c0,2.584,0,5.167,0.002,7.751
		c-0.497,0-0.85-0.361-0.851-0.886C9.148,5.387,9.15,3.738,9.15,2.089c0-0.339-0.001-0.678,0-1.016
		c0.003-0.434,0.191-0.702,0.597-0.864c0.022-0.008,0.041-0.026,0.061-0.04C9.872,0.169,9.936,0.169,10,0.169z"/>
</g>
</svg>
